<?xml version="1.0" standalone="no"?>
<!DOCTYPE svg PUBLIC "-//W3C//DTD SVG 20010904//EN"
 "http://www.w3.org/TR/2001/REC-SVG-20010904/DTD/svg10.dtd">
<svg version="1.0" xmlns="http://www.w3.org/2000/svg"
 width="260.000000pt" height="260.000000pt" viewBox="0 0 260.000000 260.000000"
 preserveAspectRatio="xMidYMid meet">
<metadata>
Created by potrace 1.14, written by Peter Selinger 2001-2017
</metadata>
<g transform="translate(0.000000,260.000000) scale(0.100000,-0.100000)"
fill="#000000" stroke="none">
<path d="M1222 1710 c-29 -4 -55 -10 -57 -12 -3 -2 4 -20 15 -40 10 -20 17
-37 15 -39 -1 -2 -6 -49 -9 -104 -4 -55 -8 -120 -11 -145 -2 -25 -7 -88 -10
-140 -4 -52 -8 -113 -10 -136 -2 -22 -6 -83 -10 -136 l-7 -95 53 -6 c29 -4 54
-5 55 -4 4 4 12 51 25 142 6 44 13 91 15 105 2 14 6 50 10 80 4 30 8 62 9 70
2 8 6 41 10 73 4 31 10 57 14 57 3 0 30 -56 60 -123 30 -67 73 -162 96 -212
23 -49 48 -104 55 -121 l14 -32 60 26 c79 33 80 35 63 67 -13 26 -11 33 38
131 29 57 51 104 48 104 -2 0 5 13 16 29 12 16 21 33 21 37 0 13 62 135 66
131 2 -2 6 -46 8 -98 9 -195 21 -404 25 -462 1 -4 20 -6 44 -3 23 2 59 5 81 5
l38 1 -6 68 c-4 37 -11 94 -16 127 -5 33 -12 80 -15 105 -3 25 -8 63 -11 85
-3 22 -7 51 -9 65 -6 66 -36 287 -40 298 -3 7 4 31 15 53 15 28 17 39 8 39 -7
1 -31 4 -53 7 -22 4 -60 7 -83 7 l-44 1 -99 -279 c-55 -154 -102 -282 -104
-285 -3 -2 -32 54 -66 125 -34 71 -86 181 -116 244 -30 63 -63 134 -74 158
-20 46 -23 47 -127 32z"/>
<path d="M918 1704 c-2 -1 -55 -5 -118 -9 -233 -13 -383 -24 -387 -28 -1 -2 3
-23 10 -48 11 -35 18 -44 35 -43 20 1 22 -4 23 -60 1 -72 6 -281 13 -489 2
-82 7 -152 11 -155 4 -4 130 -7 281 -7 236 0 274 2 275 15 4 44 5 107 1 118
-4 11 -23 12 -86 8 -45 -4 -115 -9 -156 -11 -41 -3 -98 -7 -127 -10 l-52 -6 0
125 0 124 152 1 c84 0 162 0 175 0 21 1 22 5 22 72 l0 70 -67 -5 c-38 -3 -95
-8 -128 -11 -33 -3 -81 -7 -107 -9 l-48 -3 0 112 c0 82 3 114 13 117 6 2 96 3
200 3 103 -1 187 1 188 4 0 3 2 34 3 69 l1 63 -62 -2 c-35 -1 -64 -3 -65 -5z"/>
</g>
</svg>
